<svg xmlns="http://www.w3.org/2000/svg" version="1.1" xmlns:xlink="http://www.w3.org/1999/xlink" xmlns:svgjs="http://svgjs.dev/svgjs" width="1000" height="318" viewBox="0 0 1000 318"><g transform="matrix(1,0,0,1,-0.6060606060606233,-0.45807800395169807)"><svg viewBox="0 0 396 126" data-background-color="#ffffff" preserveAspectRatio="xMidYMid meet" height="318" width="1000" xmlns="http://www.w3.org/2000/svg" xmlns:xlink="http://www.w3.org/1999/xlink"><g id="tight-bounds" transform="matrix(1,0,0,1,0.2400000000000091,0.1815026053393467)"><svg viewBox="0 0 395.52 125.63699478932134" height="125.63699478932134" width="395.52"><g><svg viewBox="0 0 395.52 125.63699478932134" height="125.63699478932134" width="395.52"><g><svg viewBox="0 0 395.52 125.63699478932134" height="125.63699478932134" width="395.52"><g id="textblocktransform"><svg viewBox="0 0 395.52 125.63699478932134" height="125.63699478932134" width="395.52" id="textblock"><g><svg viewBox="0 0 395.52 125.63699478932134" height="125.63699478932134" width="395.52"><rect width="395.52" height="125.63699478932134" x="0" y="0" opacity="1" fill="#434040" data-fill-palette-color="tertiary"></rect><g transform="matrix(1,0,0,1,23.607599999999998,23.607599999999998)"><svg width="348.3048" viewBox="1.7999999523162842 -34.29999923706055 155.44000244140625 35" height="78.42179478932134" data-palette-color="#e7b6b6"><path d="M18.6-34.3Q23.95-34.3 28.45-32.38 32.95-30.45 35.63-26.58 38.3-22.7 38.3-17.15L38.3-17.15Q38.3-11.6 35.63-7.73 32.95-3.85 28.45-1.93 23.95 0 18.6 0L18.6 0 1.8 0 1.8-4.15 8.25-4.15 8.25-30.15 1.8-30.15 1.8-34.3 18.6-34.3ZM18.1-4.15Q24.5-4.15 28.7-7.33 32.9-10.5 32.9-17.15L32.9-17.15Q32.9-23.85 28.7-27 24.5-30.15 18.1-30.15L18.1-30.15 13.4-30.15 13.4-4.15 18.1-4.15ZM76.55-4.15L81.9-4.15 81.9 0 65.55 0 65.55-4.15 71.15-4.15 67.95-12.15 53.15-12.15 50-4.15 56-4.15 56 0 39.75 0 39.75-4.15 45.1-4.15 56.25-30.2 51.1-30.2 51.1-34.3 70.4-34.3 70.4-30.2 65.3-30.2 76.55-4.15ZM54.65-15.9L66.45-15.9 60.75-30.2 60.35-30.2 54.65-15.9ZM120.35-6.25L122.9-2.9Q119.75 0.7 115.6 0.7L115.6 0.7Q111.25 0.7 108.27-2.45 105.3-5.6 103.45-12.15L103.45-12.15 102.65-14.65 95.5-14.65 95.5-4.15 101.8-4.15 101.8 0 83.9 0 83.9-4.1 90.35-4.1 90.35-30.15 83.9-30.15 83.9-34.3 103.8-34.3Q109.65-34.3 113.05-31.65 116.45-29 116.45-24.45L116.45-24.45Q116.45-20.7 114.02-18.13 111.6-15.55 107.2-14.9L107.2-14.9 108.1-12.45Q109.65-8.05 111.55-6.05 113.45-4.05 115.85-4.05L115.85-4.05Q117.35-4.05 118.4-4.65 119.45-5.25 120.35-6.25L120.35-6.25ZM95.5-30.15L95.5-18.55 103.95-18.55Q107.15-18.55 109.25-20.13 111.35-21.7 111.35-24.45L111.35-24.45Q111.35-27.1 109.27-28.63 107.2-30.15 103.95-30.15L103.95-30.15 95.5-30.15ZM122.14-34.3L157.24-34.3 157.24-23.05 152.64-23.05 152.64-30.15 142.29-30.15 142.29-4.15 148.79-4.15 148.79 0 130.59 0 130.59-4.15 137.14-4.15 137.14-30.15 126.74-30.15 126.74-23.05 122.14-23.05 122.14-34.3Z" opacity="1" transform="matrix(1,0,0,1,0,0)" fill="#e7b6b6" class="undefined-text-0" data-fill-palette-color="quaternary" id="text-0"></path></svg></g></svg></g></svg></g></svg></g><g></g></svg></g><defs></defs></svg><rect width="395.52" height="125.63699478932134" fill="none" stroke="none" visibility="hidden"></rect></g></svg></g></svg>